<svg width="24" height="24" viewBox="0 0 24 24" fill="none" xmlns="http://www.w3.org/2000/svg">
<path d="M2.50928 16.5819L7.41837 10.6182L9.30928 12.2546L4.40019 18.2182L2.50928 16.5819Z" stroke="#5CA97E" stroke-width="0.8" stroke-miterlimit="10" stroke-linecap="round" stroke-linejoin="round"/>
<path d="M11.6365 21.3091L12.2183 21.7818C12.5819 22.0728 12.6183 22.5818 12.3274 22.9455C12.0365 23.3091 11.5274 23.3455 11.1638 23.0546L7.20012 19.8546C7.0183 19.7091 6.76375 19.4546 6.50921 19.2C6.2183 18.9091 5.16375 17.8546 4.98193 17.4909L8.72739 12.9091L9.34557 13.4182C9.49102 13.5637 9.70921 13.6 9.89102 13.6C10.1092 13.5637 10.291 13.6364 10.4365 13.7818L10.5819 13.8909M13.3819 18.4364L15.9638 20.5818C16.3274 20.8728 16.8365 20.8364 17.1274 20.4728C17.4183 20.1091 17.3819 19.6 17.0183 19.3091L12.291 15.4182" stroke="#5CA97E" stroke-width="0.8" stroke-miterlimit="10" stroke-linecap="round" stroke-linejoin="round"/>
<path d="M12.5456 19.9273L13.6728 20.8364C14.0365 21.1273 14.0728 21.6364 13.7819 22C13.491 22.3636 12.9819 22.4 12.6183 22.1091L11.491 21.2M13.8547 18.8364L15.2365 19.9636C15.6001 20.2545 15.6365 20.7636 15.3456 21.1273C15.0547 21.4909 14.5456 21.5273 14.1819 21.2364L13.0183 20.2545M12.2183 15.5273L12.291 15.8545C12.5092 16.7273 12.0001 17.6364 11.1638 17.9273L10.4365 15.7818C10.1819 15.0545 10.4365 14.2545 11.0547 13.7818L12.1456 12.9818C12.5092 12.7273 12.9456 12.5818 13.4183 12.5818H13.8183C14.2183 12.5818 14.6547 12.4727 14.9819 12.2545L15.3819 12" stroke="#5CA97E" stroke-width="0.8" stroke-miterlimit="10" stroke-linecap="round" stroke-linejoin="round"/>
<path d="M20.582 17.5637L18.2547 18.7637L15.0911 11.2364L17.4183 10.0728L20.582 17.5637Z" stroke="#5CA97E" stroke-width="0.8" stroke-miterlimit="10" stroke-linecap="round" stroke-linejoin="round"/>
<path d="M3.23646 2.58183C3.49101 2.54546 3.74555 2.69092 3.89101 2.9091C4.0001 3.09092 4.21828 3.20001 4.47283 3.20001C4.76373 3.20001 5.01828 2.9091 5.01828 2.54546C5.01828 2.18183 5.34555 1.85455 5.70919 1.85455H18.5092C18.9092 1.85455 19.1637 2.18183 19.1637 2.54546C19.1637 2.9091 19.4546 3.20001 19.8183 3.20001C20.0365 3.20001 20.2546 3.09092 20.3637 2.9091C20.4728 2.69092 20.7274 2.58183 20.9456 2.58183C21.491 2.58183 21.8183 3.16364 21.5274 3.63637C21.1637 4.21819 20.5092 4.61819 19.7819 4.61819C18.9092 4.61819 18.1456 4.07274 17.891 3.27274H6.29101C6.0001 4.03637 5.27283 4.61819 4.4001 4.61819C3.67283 4.61819 3.05464 4.25455 2.69101 3.7091C2.4001 3.23637 2.69101 2.65455 3.23646 2.58183Z" stroke="#5CA97E" stroke-width="0.8" stroke-miterlimit="10" stroke-linecap="round" stroke-linejoin="round"/>
<path d="M0.945557 7.09094C2.21828 9.89094 6.29101 9.85458 7.6001 7.09094H0.945557Z" stroke="#5CA97E" stroke-width="0.8" stroke-miterlimit="10" stroke-linecap="round" stroke-linejoin="round"/>
<path d="M16.4001 7.09094C17.6729 9.89094 21.7456 9.85458 23.0547 7.09094H16.4001Z" stroke="#5CA97E" stroke-width="0.8" stroke-miterlimit="10" stroke-linecap="round" stroke-linejoin="round"/>
<path d="M13.7819 2.50911C13.7819 3.49093 12.9819 4.29093 12.0001 4.29093C11.0182 4.29093 10.2182 3.49093 10.2182 2.50911C10.1819 1.52729 10.9819 0.727295 11.9637 0.727295C12.9455 0.727295 13.7819 1.52729 13.7819 2.50911Z" stroke="#5CA97E" stroke-width="0.8" stroke-miterlimit="10" stroke-linecap="round" stroke-linejoin="round"/>
</svg>
