<svg width="21" height="19" viewBox="0 0 21 19" fill="none" xmlns="http://www.w3.org/2000/svg">
<path d="M0 16L6 8L0 0H13C13.3167 0 13.6167 0.0709998 13.9 0.213C14.1833 0.355 14.4167 0.550667 14.6 0.8L20 8L19.875 8.175C19.2917 7.79167 18.675 7.5 18.025 7.3C17.375 7.1 16.7 7 16 7C14.05 7 12.396 7.67933 11.038 9.038C9.68 10.3967 9.00067 12.0423 9 13.975C9 14.3083 9.025 14.646 9.075 14.988C9.125 15.33 9.2 15.6673 9.3 16H0ZM16 19C14.6167 19 13.4377 18.5123 12.463 17.537C11.4883 16.5617 11.0007 15.3827 11 14C10.9993 12.6173 11.487 11.4383 12.463 10.463C13.439 9.48767 14.618 9 16 9C17.382 9 18.5613 9.48767 19.538 10.463C20.5147 11.4383 21.002 12.6173 21 14C20.998 15.3827 20.5103 16.562 19.537 17.538C18.5637 18.514 17.3847 19.0013 16 19ZM15.275 16.25L18.75 12.8L17.7 11.75L15.275 14.125L14.3 13.15L13.25 14.225L15.275 16.25Z" fill="#5CA97E"/>
</svg>
